HIERARCHY
ROOT Hips
{
    OFFSET   0.000000   0.000000   0.000000
    CHANNELS 6 Xposition Yposition Zposition Zrotation Xrotation Yrotation
    JOINT Chest
    {
        OFFSET   0.000000   8.007230   0.000000
        CHANNELS 3 Zrotation Xrotation Yrotation
        JOINT Chest2
        {
            OFFSET   0.000000  22.077100   0.000000
            CHANNELS 3 Zrotation Xrotation Yrotation
            JOINT Neck
            {
                OFFSET   0.000000  23.254800   0.000000
                CHANNELS 3 Zrotation Xrotation Yrotation
                JOINT Head
                {
                    OFFSET   0.000010  14.370000   1.956600
                    CHANNELS 3 Zrotation Xrotation Yrotation
                    End Site
                    {
                        OFFSET   0.000000  19.566000   0.000000
                    }
                }
            }
            JOINT LeftCollar
            {
                OFFSET   3.911900  19.017000  -0.467062
                CHANNELS 3 Zrotation Xrotation Yrotation
                JOINT LeftShoulder
                {
                    OFFSET  10.383700   0.000000   0.000000
                    CHANNELS 3 Zrotation Xrotation Yrotation
                    JOINT LeftElbow
                    {
                        OFFSET  26.662100   0.001193   0.000835
                        CHANNELS 3 Zrotation Xrotation Yrotation
                        JOINT LeftWrist
                        {
                            OFFSET  28.869000  -0.000058  -0.000075
                            CHANNELS 3 Zrotation Xrotation Yrotation
                            JOINT LeftFinger0
                            {
                                OFFSET   2.044660  -2.323460   3.252850
                                CHANNELS 3 Zrotation Xrotation Yrotation
                                JOINT LeftFinger01
                                {
                                    OFFSET   3.088130   0.000000   0.000000
                                    CHANNELS 3 Zrotation Xrotation Yrotation
                                    JOINT LeftFinger02
                                    {
                                        OFFSET   2.639450   0.000000   0.000000
                                        CHANNELS 3 Zrotation Xrotation Yrotation
                                        End Site
                                        {
                                            OFFSET   2.582190   0.000000   0.000000
                                        }
                                    }
                                }
                            }
                            JOINT LeftFinger1
                            {
                                OFFSET   8.364480   0.000000   3.252850
                                CHANNELS 3 Zrotation Xrotation Yrotation
                                JOINT LeftFinger11
                                {
                                    OFFSET   4.646920   0.000000   0.000000
                                    CHANNELS 3 Zrotation Xrotation Yrotation
                                    JOINT LeftFinger12
                                    {
                                        OFFSET   2.323460   0.000000   0.000000
                                        CHANNELS 3 Zrotation Xrotation Yrotation
                                        End Site
                                        {
                                            OFFSET   2.273050   0.000000   0.000000
                                        }
                                    }
                                }
                            }
                            JOINT LeftFinger2
                            {
                                OFFSET   8.364490   0.000016   1.078090
                                CHANNELS 3 Zrotation Xrotation Yrotation
                                JOINT LeftFinger21
                                {
                                    OFFSET   5.111620   0.000000   0.000000
                                    CHANNELS 3 Zrotation Xrotation Yrotation
                                    JOINT LeftFinger22
                                    {
                                        OFFSET   2.788150   0.000012   0.000000
                                        CHANNELS 3 Zrotation Xrotation Yrotation
                                        End Site
                                        {
                                            OFFSET   2.727660   0.000000   0.000000
                                        }
                                    }
                                }
                            }
                            JOINT LeftFinger3
                            {
                                OFFSET   7.899780   0.000014  -1.078090
                                CHANNELS 3 Zrotation Xrotation Yrotation
                                JOINT LeftFinger31
                                {
                                    OFFSET   4.646930   0.000000   0.000000
                                    CHANNELS 3 Zrotation Xrotation Yrotation
                                    JOINT LeftFinger32
                                    {
                                        OFFSET   2.323470   0.000000   0.000000
                                        CHANNELS 3 Zrotation Xrotation Yrotation
                                        End Site
                                        {
                                            OFFSET   2.273050   0.000000   0.000000
                                        }
                                    }
                                }
                            }
                            JOINT LeftFinger4
                            {
                                OFFSET   7.435090   0.000000  -3.252850
                                CHANNELS 3 Zrotation Xrotation Yrotation
                                JOINT LeftFinger41
                                {
                                    OFFSET   3.717550   0.000000   0.000000
                                    CHANNELS 3 Zrotation Xrotation Yrotation
                                    JOINT LeftFinger42
                                    {
                                        OFFSET   1.858770   0.000000   0.000000
                                        CHANNELS 3 Zrotation Xrotation Yrotation
                                        End Site
                                        {
                                            OFFSET   1.818440   0.000000   0.000000
                                        }
                                    }
                                }
                            }
                        }
                    }
                }
            }
            JOINT RightCollar
            {
                OFFSET  -3.911900  19.017000  -0.467063
                CHANNELS 3 Zrotation Xrotation Yrotation
                JOINT RightShoulder
                {
                    OFFSET -10.383700   0.000023   0.000000
                    CHANNELS 3 Zrotation Xrotation Yrotation
                    JOINT RightElbow
                    {
                        OFFSET -26.662100   0.001246   0.001011
                        CHANNELS 3 Zrotation Xrotation Yrotation
                        JOINT RightWrist
                        {
                            OFFSET -28.869000  -0.000026  -0.000078
                            CHANNELS 3 Zrotation Xrotation Yrotation
                            JOINT RightFinger0
                            {
                                OFFSET  -2.044660  -2.323490   3.252850
                                CHANNELS 3 Zrotation Xrotation Yrotation
                                JOINT RightFinger01
                                {
                                    OFFSET  -3.088130   0.000000   0.000000
                                    CHANNELS 3 Zrotation Xrotation Yrotation
                                    JOINT RightFinger02
                                    {
                                        OFFSET  -2.639460   0.000000   0.000000
                                        CHANNELS 3 Zrotation Xrotation Yrotation
                                        End Site
                                        {
                                            OFFSET  -2.582190   0.000000   0.000000
                                        }
                                    }
                                }
                            }
                            JOINT RightFinger1
                            {
                                OFFSET  -8.364480   0.000000   3.252850
                                CHANNELS 3 Zrotation Xrotation Yrotation
                                JOINT RightFinger11
                                {
                                    OFFSET  -4.646920   0.000000   0.000000
                                    CHANNELS 3 Zrotation Xrotation Yrotation
                                    JOINT RightFinger12
                                    {
                                        OFFSET  -2.323470   0.000000   0.000000
                                        CHANNELS 3 Zrotation Xrotation Yrotation
                                        End Site
                                        {
                                            OFFSET  -2.273050   0.000000   0.000000
                                        }
                                    }
                                }
                            }
                            JOINT RightFinger2
                            {
                                OFFSET  -8.364480   0.000000   1.078090
                                CHANNELS 3 Zrotation Xrotation Yrotation
                                JOINT RightFinger21
                                {
                                    OFFSET  -5.111620   0.000000   0.000000
                                    CHANNELS 3 Zrotation Xrotation Yrotation
                                    JOINT RightFinger22
                                    {
                                        OFFSET  -2.788160   0.000000   0.000000
                                        CHANNELS 3 Zrotation Xrotation Yrotation
                                        End Site
                                        {
                                            OFFSET  -2.727660   0.000000   0.000000
                                        }
                                    }
                                }
                            }
                            JOINT RightFinger3
                            {
                                OFFSET  -7.899780   0.000000  -1.078090
                                CHANNELS 3 Zrotation Xrotation Yrotation
                                JOINT RightFinger31
                                {
                                    OFFSET  -4.646930   0.000000   0.000000
                                    CHANNELS 3 Zrotation Xrotation Yrotation
                                    JOINT RightFinger32
                                    {
                                        OFFSET  -2.323470   0.000000   0.000000
                                        CHANNELS 3 Zrotation Xrotation Yrotation
                                        End Site
                                        {
                                            OFFSET  -2.273050   0.000000   0.000000
                                        }
                                    }
                                }
                            }
                            JOINT RightFinger4
                            {
                                OFFSET  -7.435090   0.000000  -3.252850
                                CHANNELS 3 Zrotation Xrotation Yrotation
                                JOINT RightFinger41
                                {
                                    OFFSET  -3.717550   0.000000   0.000000
                                    CHANNELS 3 Zrotation Xrotation Yrotation
                                    JOINT RightFinger42
                                    {
                                        OFFSET  -1.858760   0.000000   0.000000
                                        CHANNELS 3 Zrotation Xrotation Yrotation
                                        End Site
                                        {
                                            OFFSET  -1.818440   0.000000   0.000000
                                        }
                                    }
                                }
                            }
                        }
                    }
                }
            }
        }
    }
    JOINT LeftHip
    {
        OFFSET   9.783010   0.000000   0.000000
        CHANNELS 3 Zrotation Xrotation Yrotation
        JOINT LeftKnee
        {
            OFFSET   0.000073 -41.789100   0.001749
            CHANNELS 3 Zrotation Xrotation Yrotation
            JOINT LeftAnkle
            {
                OFFSET   0.000111 -41.133200  -0.000179
                CHANNELS 3 Zrotation Xrotation Yrotation
                JOINT LeftToe
                {
                    OFFSET   0.000000  -6.358960  14.674500
                    CHANNELS 3 Zrotation Xrotation Yrotation
                    End Site
                    {
                        OFFSET   0.000000   0.000000   3.913200
                    }
                }
            }
        }
    }
    JOINT RightHip
    {
        OFFSET  -9.783010   0.000000   0.000000
        CHANNELS 3 Zrotation Xrotation Yrotation
        JOINT RightKnee
        {
            OFFSET   0.000424 -41.789200   0.005205
            CHANNELS 3 Zrotation Xrotation Yrotation
            JOINT RightAnkle
            {
                OFFSET   0.000000 -41.133200  -0.000155
                CHANNELS 3 Zrotation Xrotation Yrotation
                JOINT RightToe
                {
                    OFFSET   0.000000  -6.358960  14.674500
                    CHANNELS 3 Zrotation Xrotation Yrotation
                    End Site
                    {
                        OFFSET   0.000000   0.000000   3.913200
                    }
                }
            }
        }
    }
}
MOTION
Frames: 4
Frame Time:   0.016667
 -1.205520  89.570500  -2.048890  -2.768700  -8.117230  -3.056970   0.623900   4.809120   0.977361   1.171290   9.628000   1.912070   1.158290   0.101511  -0.007912   1.902960   0.205907   1.450280  -3.737030   0.082831   2.333440 -74.968600  15.193300  -2.448260  -1.629230  -3.086640 -16.589300  11.553000   0.314697   2.185140  35.942200  27.214800 -55.158200 -33.648700  -0.003189  -0.002079 -11.815000  -0.001298  -0.001779 -29.211900   5.524040  -9.755350 -24.287200   0.003174   0.002257 -17.003500   0.002241  -0.000981 -28.357200  -1.351870   2.504330 -34.857200   0.008563   0.001864 -23.223400   0.002925   0.008876 -28.338900  -1.351260   2.504660 -34.728500   0.002766   0.004813 -23.125500   0.005350   0.003658 -32.016300  -1.509330   2.412750 -48.070700  -0.000692   0.002867 -32.015100  -0.001423   0.001325   8.987350   1.328050   6.683500  70.931300   6.680820  -7.630710  -0.982083  -7.421120  14.696300 -13.364900  -4.062570   0.992305 -34.542800  28.859600  62.873500  35.012900   0.012312  -0.008546  12.506400   0.003381  -0.001971  28.147000   9.360060  16.908800  24.170100  -0.002002   0.002610  16.919100  -0.000462  -0.000889  27.926900   4.338400   8.121820  33.679400  -0.001999   0.002316  22.430500  -0.000908   0.001932  28.453500   4.128900   7.568370  39.568100  -0.007039   0.001571  26.352300   0.006273   0.001028  41.294600  -1.462110  -1.663920  61.973700   0.002913   0.001232  41.274500   0.009111   0.014764   2.368300   9.857650   4.437740   1.501730   0.044174   3.222740  -1.282880  -2.255350   0.877010   0.000000   0.000000  -0.000000   4.142820   7.262890   1.633390  -2.325920   4.571210  -5.916640  -0.370440  -3.998500   0.419089  -0.000000   0.000000  -0.000000
 -1.201850  89.570500  -2.056790  -2.768970  -8.126390  -3.057040   0.618711   4.829390   0.979296   1.160390   9.668460   1.916270   1.176850   0.120346  -0.007890   1.933450   0.243871   1.445080  -3.728100   0.070836   2.327570 -74.948100  15.197900  -2.460160  -1.631060  -3.086590 -16.620800  11.553600   0.298128   2.171890  35.941800  27.199300 -55.141500 -33.639300  -0.003219  -0.002096 -11.815000  -0.001306  -0.001800 -29.219700   5.518920  -9.749020 -24.293100   0.003162   0.002250 -17.003400   0.002241  -0.000983 -28.356500  -1.359610   2.518620 -34.860100   0.008605   0.001826 -23.222300   0.002940   0.008915 -28.338200  -1.359000   2.518960 -34.733700   0.002765   0.004817 -23.125600   0.005370   0.003659 -32.015600  -1.518090   2.426450 -48.070700  -0.000691   0.002889 -32.015100  -0.001432   0.001334   8.993530   1.313960   6.691080  70.918000   6.711110  -7.597550  -0.986570  -7.445900  14.721600 -13.336000  -4.005630   1.026400 -34.541400  28.828200  62.831600  34.993500   0.012321  -0.008546  12.496700   0.003365  -0.001958  28.132100   9.360300  16.919200  24.158700  -0.002004   0.002617  16.911100  -0.000468  -0.000879  27.918800   4.343510   8.134030  33.622400  -0.001997   0.002312  22.392600  -0.000909   0.001928  28.453200   4.129240   7.568380  39.570100  -0.007032   0.001522  26.353700   0.006285   0.000993  41.301200  -1.464150  -1.665860  61.983800   0.002916   0.001195  41.281200   0.009107   0.014797   2.363320   9.872550   4.459480   1.503050   0.027131   3.196820  -1.282360  -2.246670   0.881350  -0.000000   0.000000   0.000000   4.146650   7.270250   1.642430  -2.331430   4.570310  -5.939620  -0.369564  -3.993140   0.432246   0.000000   0.000000  -0.000000
 -1.195340  89.570500  -2.070810  -2.769630  -8.142890  -3.057170   0.609268   4.863470   0.982759   1.140600   9.736500   1.923810   1.208630   0.153455  -0.007848   1.985650   0.310649   1.432690  -3.711800   0.051913   2.317280 -74.914100  15.214300  -2.485420  -1.634360  -3.089030 -16.664400  11.554200   0.279661   2.158250  35.941300  27.179400 -55.112400 -33.630000  -0.003279  -0.002134 -11.815000  -0.001325  -0.001840 -29.229100   5.508730  -9.735040 -24.298900   0.003129   0.002237 -17.003200   0.002238  -0.000992 -28.355400  -1.372320   2.542180 -34.863000   0.008708   0.001732 -23.218800   0.002979   0.009016 -28.336900  -1.371720   2.542510 -34.738900   0.002765   0.004826 -23.125700   0.005421   0.003665 -32.014400  -1.532350   2.449100 -48.070700  -0.000689   0.002937 -32.015100  -0.001452   0.001356   9.006710   1.289100   6.706850  70.903500   6.741550  -7.555310  -1.004690  -7.480010  14.789500 -13.306200  -3.922500   1.082050 -34.565200  28.804800  62.779900  34.959900   0.012343  -0.008548  12.479900   0.003322  -0.001934  28.109400   9.364040  16.940900  24.142100  -0.002012   0.002638  16.899400  -0.000487  -0.000850  27.904500   4.354690   8.159520  33.525400  -0.001993   0.002300  22.328000  -0.000912   0.001918  28.453000   4.129580   7.568380  39.583200  -0.007019   0.001412  26.362400   0.006318   0.000914  41.318400  -1.469450  -1.670850  62.009800   0.002924   0.001110  41.298500   0.009096   0.014881   2.355440   9.896310   4.494050   1.506890   0.000000   3.156870  -1.281410  -2.231380   0.888866  -0.000000   0.000000   0.000000   4.152990   7.280390   1.657940  -2.341420   4.569290  -5.976050  -0.368160  -3.984290   0.453405  -0.000000   0.000000   0.000000
 -1.189110  89.570500  -2.083750  -2.771990  -8.157080  -3.060640   0.600053   4.890290   0.986244   1.121350   9.790010   1.931450   1.234490   0.183376  -0.007790   2.028150   0.371074   1.416250  -3.696030   0.039164   2.307130 -74.886700  15.243800  -2.515240  -1.639780  -3.104530 -16.682000  11.554600   0.277861   2.157780  35.941400  27.177400 -55.079500 -33.634100  -0.003352  -0.002199 -11.817100  -0.001353  -0.001891 -29.226200   5.494480  -9.713810 -24.294800   0.003074   0.002219 -17.003100   0.002228  -0.001010 -28.354300  -1.384430   2.564060 -34.852500   0.008867   0.001588 -23.210700   0.003037   0.009171 -28.335700  -1.383830   2.564390 -34.730900   0.002766   0.004840 -23.125600   0.005498   0.003676 -32.006200  -1.545520   2.470400 -48.059500  -0.000681   0.003004 -32.007700  -0.001480   0.001392   9.023610   1.267440   6.725990  70.898100   6.701600  -7.544100  -1.040550  -7.494000  14.893400 -13.305000  -3.874660   1.121510 -34.600200  28.832900  62.754000  34.931700   0.012373  -0.008592  12.465800   0.003258  -0.001911  28.098300   9.368920  16.959600  24.132600  -0.002028   0.002676  16.892800  -0.000520  -0.000802  27.890500   4.366020   8.185520  33.422400  -0.001987   0.002282  22.259400  -0.000920   0.001905  28.453400   4.128180   7.566440  39.601000  -0.007004   0.001256  26.374300   0.006372   0.000799  41.338200  -1.475500  -1.676520  62.039600   0.002937   0.000987  41.318400   0.009081   0.015009   2.350180   9.914200   4.516500   1.514370  -0.023306   3.132990  -1.280300  -2.213640   0.895631   0.000000   0.000000   0.000000   4.157050   7.282600   1.670550  -2.350330   4.574220  -5.999620  -0.363991  -3.977060   0.467241   0.000000   0.000000  -0.000000
